<svg width="24" height="24" viewBox="0 0 24 24" fill="none" xmlns="http://www.w3.org/2000/svg">
<path d="M5.58795 7.69434H0.769909C0.556077 7.69434 0.382812 7.86768 0.382812 8.08143V23.5597C0.382812 23.7736 0.556077 23.9468 0.769909 23.9468H5.58795C5.80178 23.9468 5.97504 23.7736 5.97504 23.5597V8.08143C5.97504 7.86768 5.80178 7.69434 5.58795 7.69434Z" fill="#F4EFEF"/>
<path d="M3.1793 0C1.42622 0 0 1.42467 0 3.17582C0 4.92774 1.42622 6.35295 3.1793 6.35295C4.93099 6.35295 6.35605 4.92766 6.35605 3.17582C6.35613 1.42467 4.93099 0 3.1793 0Z" fill="#F4EFEF"/>
<path d="M17.8403 7.30957C15.9052 7.30957 14.4747 8.14144 13.6071 9.08665V8.08136C13.6071 7.86761 13.4338 7.69427 13.22 7.69427H8.60585C8.39201 7.69427 8.21875 7.86761 8.21875 8.08136V23.5597C8.21875 23.7735 8.39201 23.9468 8.60585 23.9468H13.4134C13.6272 23.9468 13.8005 23.7735 13.8005 23.5597V15.9015C13.8005 13.3209 14.5014 12.3155 16.3003 12.3155C18.2595 12.3155 18.4152 13.9272 18.4152 16.0343V23.5597C18.4152 23.7736 18.5885 23.9468 18.8023 23.9468H23.6116C23.8254 23.9468 23.9987 23.7736 23.9987 23.5597V15.0696C23.9987 11.2323 23.267 7.30957 17.8403 7.30957Z" fill="#F4EFEF"/>
</svg>
